<?xml version="1.0" encoding="UTF-8"?>
<!DOCTYPE svg PUBLIC "-//W3C//DTD SVG 1.1//EN" "http://www.w3.org/Graphics/SVG/1.1/DTD/svg11.dtd">
<svg width="580pt" height="386pt" viewBox="0 0 580 386" version="1.1" xmlns="http://www.w3.org/2000/svg">

<path fill="#000000" d=" M 112.14 52.59 C 115.64 56.47 119.63 59.90 122.85 64.03 C 123.90 63.75 124.95 63.48 126.02 63.29 L 125.41 61.14 C 127.71 60.30 130.01 59.44 132.30 58.57 C 137.21 64.03 141.86 69.71 146.75 75.18 C 150.28 75.79 154.65 74.79 157.31 77.72 C 161.49 81.57 165.72 85.37 169.93 89.18 C 171.36 89.04 172.97 88.73 174.10 89.88 C 178.56 93.13 182.94 96.48 187.43 99.70 C 192.51 103.16 196.17 108.20 200.51 112.48 C 143.38 112.53 86.26 112.49 29.14 112.50 C 32.40 109.28 35.55 105.95 38.86 102.79 C 39.95 101.67 41.58 101.49 42.99 101.00 C 47.17 100.54 48.44 94.58 53.18 95.92 C 57.27 92.56 61.36 89.18 65.34 85.69 C 66.28 86.35 67.22 87.02 68.16 87.68 C 72.13 85.32 73.40 80.48 77.08 77.75 C 79.57 77.75 82.06 77.75 84.55 77.76 C 85.36 76.35 86.17 74.95 87.04 73.57 C 88.26 73.04 89.55 72.52 90.42 71.45 C 93.76 67.80 97.07 64.11 100.42 60.46 C 101.90 61.68 103.38 62.90 104.86 64.12 C 107.26 60.26 109.73 56.45 112.14 52.59 Z"/>
<path fill="#000000" d=" M 261.31 85.36 C 271.30 74.46 281.14 63.41 291.09 52.47 C 294.80 56.19 298.53 59.90 302.24 63.62 C 303.46 62.86 304.69 62.09 305.94 61.34 C 311.47 67.13 317.03 72.90 322.72 78.54 C 328.39 73.70 333.84 68.56 339.74 63.99 C 346.01 68.65 352.03 73.65 358.21 78.44 C 360.23 76.96 362.29 75.51 364.35 74.08 C 373.00 81.77 381.87 89.26 390.25 97.24 C 386.11 95.02 382.36 92.15 378.43 89.59 C 374.18 86.50 369.50 83.99 365.56 80.49 C 364.29 79.95 363.21 81.21 362.22 81.78 C 363.56 82.78 365.31 82.72 366.89 83.07 L 365.74 83.21 C 367.66 86.94 369.34 90.78 371.03 94.61 C 360.85 86.07 350.86 77.30 340.82 68.59 C 337.31 72.33 333.85 76.12 330.33 79.84 C 334.54 89.01 338.95 98.09 343.12 107.28 C 330.50 94.05 318.52 80.22 306.04 66.87 C 305.17 67.98 304.31 69.09 303.46 70.20 C 299.14 66.30 295.40 61.82 291.19 57.81 C 284.97 76.28 278.99 94.83 272.61 113.25 C 272.16 106.56 271.75 99.86 271.18 93.18 C 266.10 90.74 261.05 88.27 255.98 85.83 C 246.93 92.89 238.21 100.38 229.01 107.23 C 237.42 98.18 246.25 89.54 254.77 80.60 C 256.95 82.18 259.13 83.77 261.31 85.36 Z"/>
<path d=" M 115.17 59.83 C 119.63 64.47 123.61 69.53 127.05 74.98 C 125.78 77.59 124.96 80.39 125.21 83.33 C 124.17 84.53 123.11 85.72 122.06 86.90 C 121.78 89.70 121.45 92.48 121.12 95.27 C 119.52 88.54 119.77 81.66 119.65 74.81 C 117.43 70.06 116.27 64.94 115.17 59.83 Z" fill="#FFFFFF"/>
<path fill="#000000" d=" M 474.61 75.51 C 479.25 70.91 483.84 66.25 488.50 61.66 C 495.24 68.07 501.84 74.62 508.62 80.98 C 512.57 78.04 516.37 74.88 520.50 72.20 C 524.34 75.73 528.25 79.18 532.24 82.53 C 534.36 82.51 536.49 82.50 538.63 82.49 C 539.73 83.95 540.85 85.40 541.97 86.85 C 544.06 87.16 546.15 87.49 548.24 87.84 C 552.46 93.16 556.73 98.44 560.95 103.76 C 559.29 103.75 557.63 103.75 555.98 103.75 C 552.30 99.45 548.61 95.17 544.99 90.84 C 543.71 93.38 542.38 95.90 540.84 98.29 C 540.31 95.31 539.97 92.31 539.57 89.31 C 536.01 86.72 532.29 84.35 528.12 82.86 C 525.03 80.73 522.68 77.67 520.10 74.96 C 516.07 79.63 512.05 84.30 508.00 88.96 C 509.54 92.98 511.01 97.02 512.43 101.09 C 508.40 97.44 504.37 93.80 500.43 90.06 C 494.17 93.05 488.09 96.39 481.77 99.22 C 486.13 94.40 490.76 89.83 495.11 85.01 C 498.35 85.00 501.59 85.00 504.84 85.00 C 499.57 78.43 494.20 71.96 488.90 65.44 C 481.05 74.29 473.36 83.28 465.36 91.99 C 466.94 88.25 468.87 84.66 470.54 80.96 C 462.78 88.39 455.55 96.35 447.97 103.96 C 448.60 100.43 449.24 96.90 449.97 93.38 C 447.57 90.67 445.10 88.02 442.73 85.29 C 434.32 91.09 426.04 97.09 417.66 102.95 C 416.16 104.18 414.13 103.62 412.36 103.76 C 422.33 96.29 432.43 89.00 442.36 81.49 C 446.10 83.26 449.78 85.16 453.50 86.98 C 457.63 83.60 461.76 80.21 465.90 76.84 C 468.20 74.52 471.71 75.79 474.61 75.51 Z"/>
<path d=" M 129.45 66.34 C 129.87 65.51 130.71 63.86 131.13 63.03 C 136.55 68.59 142.05 74.12 147.16 79.96 C 150.63 86.20 154.03 92.53 156.98 99.04 C 151.08 91.52 145.51 83.73 139.53 76.28 C 137.56 75.23 135.36 74.70 133.25 74.00 C 133.25 72.70 133.25 71.40 133.25 70.10 C 131.98 68.85 130.72 67.59 129.45 66.34 Z" fill="#FFFFFF"/>
<path d=" M 100.23 69.01 C 99.84 67.79 100.10 66.74 100.99 65.87 C 102.24 65.90 102.80 66.56 102.68 67.86 C 102.13 69.15 101.32 69.53 100.23 69.01 Z" fill="#FFFFFF"/>
<path d=" M 78.26 79.70 C 79.59 79.74 80.92 79.78 82.25 79.83 C 80.93 82.01 79.59 84.17 78.24 86.33 C 78.25 84.12 78.25 81.91 78.26 79.70 Z" fill="#FFFFFF"/>
<path d=" M 88.77 78.32 C 90.82 79.80 92.87 81.29 94.94 82.76 C 97.58 82.75 100.22 82.75 102.87 82.74 C 101.61 83.66 100.36 84.57 99.10 85.48 C 100.99 87.92 103.03 90.25 105.03 92.62 C 100.85 90.76 96.65 88.96 92.53 86.98 C 92.52 84.75 90.34 84.08 88.75 83.12 C 88.75 81.52 88.76 79.92 88.77 78.32 Z" fill="#FFFFFF"/>
<path d=" M 153.94 80.31 C 156.60 81.51 156.86 85.15 158.92 87.05 C 161.05 88.19 163.40 88.82 165.68 89.61 C 164.57 89.71 162.34 89.90 161.23 89.99 C 161.84 91.89 162.45 93.79 163.01 95.70 C 158.44 91.65 156.26 85.79 153.94 80.31 Z" fill="#FFFFFF"/>
<path d=" M 60.94 101.46 C 64.66 97.98 68.40 94.50 72.63 91.64 C 74.32 92.07 76.01 92.50 77.70 92.92 C 75.17 94.97 72.99 97.73 69.76 98.70 C 66.83 99.64 63.86 100.49 60.94 101.46 Z" fill="#FFFFFF"/>
<path d=" M 169.28 94.75 C 170.75 93.73 172.23 92.70 173.73 91.71 C 177.55 95.20 181.71 98.31 185.35 102.00 C 182.58 100.67 179.99 98.33 176.69 99.18 C 176.29 98.30 175.90 97.42 175.51 96.54 C 173.43 95.94 171.35 95.35 169.28 94.75 Z" fill="#FFFFFF"/>
<path fill="#000000" d=" M 98.55 168.51 C 101.87 165.77 105.67 163.47 109.86 162.34 C 111.83 161.70 113.61 162.78 115.12 163.92 C 118.65 166.57 123.18 166.99 127.18 168.63 C 143.00 174.63 156.40 185.23 170.14 194.83 C 183.81 204.74 197.66 214.41 211.11 224.61 C 204.74 223.18 198.44 221.29 192.56 218.42 C 184.84 214.71 176.58 212.12 168.06 211.14 C 162.63 209.78 157.31 207.96 151.78 206.98 C 154.99 209.56 158.45 211.79 161.70 214.31 C 152.42 211.66 143.37 208.13 133.93 206.03 C 139.26 210.67 146.12 212.69 152.26 215.93 C 146.87 215.09 141.72 213.15 136.41 211.94 C 137.82 213.52 139.34 215.00 140.70 216.63 C 134.96 215.17 129.99 211.92 124.88 209.08 C 121.57 207.29 118.28 209.99 115.04 210.57 C 112.36 211.14 109.99 212.53 107.90 214.27 C 110.30 213.96 112.69 213.53 115.11 213.33 C 112.10 215.66 108.29 217.55 104.39 216.41 C 100.34 215.26 96.60 217.95 92.79 218.91 C 94.20 216.91 95.61 214.91 96.98 212.89 C 92.60 214.59 88.95 218.26 84.07 218.53 C 80.76 218.84 77.66 220.03 74.51 220.96 C 77.79 218.43 81.34 216.28 84.71 213.87 C 84.82 214.44 85.04 215.58 85.15 216.16 C 87.99 214.46 90.80 212.71 93.49 210.78 C 94.40 205.42 100.07 203.51 104.36 201.52 C 103.49 203.06 102.61 204.60 101.71 206.13 C 105.19 203.68 108.43 200.91 111.97 198.56 C 111.13 200.30 110.25 202.02 109.38 203.75 C 112.95 202.11 117.21 200.96 119.33 197.33 C 121.64 193.47 126.55 190.88 126.53 185.93 C 126.67 184.09 126.16 182.30 125.77 180.53 C 130.07 182.64 134.32 184.87 138.67 186.87 C 137.38 184.46 136.18 181.78 133.82 180.20 C 131.57 178.47 128.40 178.66 126.24 176.80 C 123.51 174.62 120.83 172.39 118.11 170.21 L 117.86 172.10 C 116.13 171.09 114.39 170.08 112.66 169.08 C 112.88 172.43 113.25 175.89 115.27 178.70 C 114.96 183.34 114.33 188.16 111.51 192.03 C 111.29 187.91 113.22 183.85 111.94 179.80 C 111.17 180.81 110.42 181.84 109.66 182.87 C 109.15 180.21 109.50 177.20 108.18 174.79 C 107.28 173.21 105.71 174.88 104.66 175.33 C 102.48 176.92 99.61 176.24 97.20 177.18 C 95.04 178.43 94.14 180.92 93.19 183.10 C 91.38 187.95 89.76 192.88 88.48 197.89 C 89.49 196.67 90.47 195.43 91.42 194.17 C 91.96 194.04 93.03 193.79 93.56 193.67 C 94.32 192.68 95.09 191.71 95.89 190.76 C 95.10 193.29 94.15 195.76 93.27 198.26 C 94.83 197.04 96.03 194.95 98.28 195.11 C 99.23 193.89 100.17 192.66 101.13 191.46 C 101.29 196.41 98.43 200.53 94.81 203.59 C 95.14 202.24 95.47 200.90 95.81 199.56 C 93.10 203.26 90.86 207.48 87.00 210.14 C 84.50 211.87 81.92 213.54 79.08 214.65 C 82.26 211.62 85.83 208.84 87.70 204.73 C 84.51 205.09 81.82 206.91 79.23 208.66 C 80.71 204.91 82.18 201.16 83.40 197.32 C 83.85 197.35 84.76 197.41 85.21 197.44 C 86.44 194.48 87.10 191.33 87.43 188.14 C 85.89 189.85 84.36 191.57 82.73 193.18 C 83.33 190.80 84.01 188.43 84.62 186.05 C 79.68 188.95 75.75 193.64 74.41 199.26 C 74.15 197.53 74.27 195.47 72.85 194.19 C 72.25 196.57 71.90 199.00 71.46 201.40 C 68.68 202.15 67.63 205.25 65.49 206.95 C 69.12 205.44 72.92 204.11 76.91 204.29 C 75.96 207.52 75.63 211.53 72.46 213.44 C 68.48 215.72 64.21 217.47 59.94 219.15 C 62.84 216.74 65.76 214.35 68.26 211.51 C 60.03 212.20 52.74 216.29 45.18 219.19 C 46.06 217.47 46.92 215.74 47.77 214.00 C 37.97 218.78 28.59 224.45 18.63 228.90 C 19.82 227.00 21.80 225.90 23.59 224.68 C 28.78 221.18 33.94 217.62 39.02 213.96 C 43.20 210.91 48.18 208.74 51.38 204.51 C 53.09 202.45 54.16 199.94 55.92 197.92 C 58.64 194.95 63.04 194.58 65.96 191.88 C 69.96 188.23 72.90 183.40 77.53 180.47 C 80.85 179.46 84.65 180.67 87.75 178.75 C 92.39 176.53 94.64 171.60 98.55 168.51 Z"/>
<path fill="#000000" d=" M 280.88 189.69 C 290.61 180.54 300.22 171.25 309.88 162.01 C 319.87 171.29 329.75 180.72 339.68 190.07 C 342.66 187.54 345.37 184.71 348.28 182.11 C 363.43 197.83 379.06 213.10 394.28 228.75 C 338.01 228.73 281.74 228.77 225.47 228.74 C 240.95 213.28 256.21 197.63 271.68 182.17 C 274.76 184.66 277.81 187.19 280.88 189.69 Z"/>
<path fill="#000000" d=" M 475.16 183.95 C 480.72 178.60 486.25 173.20 491.98 168.02 C 501.76 176.54 511.51 185.09 521.31 193.60 C 522.66 192.50 524.02 191.41 525.38 190.32 C 529.81 195.98 534.12 201.74 538.64 207.34 C 541.09 206.56 543.55 205.83 546.02 205.10 C 551.26 211.05 556.58 216.94 561.71 222.99 C 555.82 218.61 550.45 213.58 544.78 208.94 C 542.22 209.70 539.67 210.45 537.13 211.24 C 532.98 205.91 528.87 200.56 524.74 195.22 C 523.72 196.10 522.70 196.98 521.70 197.87 C 520.30 197.28 518.83 197.69 517.42 197.45 C 510.95 192.89 503.92 189.18 497.21 184.99 C 496.57 186.75 495.94 188.52 495.32 190.30 C 493.56 188.69 491.86 187.02 490.13 185.39 C 489.96 188.64 489.78 191.89 489.56 195.14 C 487.52 194.03 485.55 192.81 483.62 191.54 C 482.35 195.35 481.08 199.16 479.79 202.97 C 478.90 200.50 478.04 198.03 477.22 195.54 C 472.29 198.71 467.55 202.18 462.46 205.08 C 472.11 195.00 481.97 185.13 491.61 175.05 C 499.81 181.84 508.26 188.36 516.13 195.54 C 516.52 195.05 516.92 194.56 517.33 194.07 C 515.05 193.08 513.33 191.23 511.47 189.65 C 504.99 183.98 498.57 178.25 492.03 172.65 C 486.54 177.77 481.18 183.01 475.69 188.12 C 473.94 187.22 472.20 186.30 470.47 185.36 C 467.44 188.79 464.46 192.26 461.31 195.58 C 462.20 195.76 463.12 195.66 463.67 194.83 C 465.88 192.01 468.19 189.29 470.56 186.61 C 472.26 187.53 473.95 188.47 475.64 189.41 C 470.57 190.20 466.81 193.78 462.88 196.73 L 465.44 197.54 C 464.40 197.22 462.31 196.58 461.27 196.26 L 461.49 198.43 C 461.06 197.77 460.62 197.10 460.19 196.45 C 458.77 198.82 456.85 200.83 455.01 202.88 C 453.10 201.92 451.20 200.97 449.30 200.00 C 436.74 207.65 424.34 215.56 411.72 223.08 C 423.83 213.72 436.55 205.16 448.85 196.05 C 450.57 196.92 452.30 197.78 454.03 198.64 C 459.26 192.86 464.34 186.96 469.55 181.16 C 471.42 182.08 473.29 183.01 475.16 183.95 Z"/>
<path d=" M 310.17 169.74 C 328.36 188.07 346.70 206.25 364.91 224.56 C 356.02 222.15 347.10 219.88 338.13 217.83 C 333.14 216.77 328.15 215.42 323.02 215.49 C 318.00 215.70 313.07 212.56 310.88 208.10 C 309.46 205.42 310.86 201.75 308.42 199.58 C 303.50 194.97 296.65 193.38 291.30 189.39 C 294.51 187.54 298.59 187.97 301.63 185.70 C 306.98 182.21 309.14 175.74 310.17 169.74 Z" fill="#FFFFFF"/>
<path d=" M 271.47 186.92 C 274.01 189.04 276.58 191.13 279.16 193.21 C 273.05 198.85 267.07 204.63 260.83 210.13 C 263.38 204.59 265.48 198.24 270.77 194.67 C 273.17 192.83 271.48 189.37 271.47 186.92 Z" fill="#FFFFFF"/>
<path d=" M 348.46 187.77 C 358.74 198.38 369.49 208.51 379.89 219.01 C 373.06 215.76 366.40 211.99 359.06 210.00 C 354.13 208.04 349.29 204.26 347.81 198.98 C 348.17 195.25 348.75 191.53 348.46 187.77 Z" fill="#FFFFFF"/>
<path d=" M 145.68 196.80 C 150.40 198.13 154.84 200.29 159.43 202.01 C 159.33 201.54 159.13 200.59 159.04 200.12 C 161.01 200.95 163.00 201.77 165.02 202.51 C 163.32 200.86 161.57 199.28 159.86 197.65 C 169.03 202.20 177.92 207.43 185.95 213.80 C 181.26 211.98 176.78 209.65 172.01 208.04 C 166.85 206.28 161.02 206.76 156.27 203.80 C 152.72 201.50 149.11 199.27 145.68 196.80 Z" fill="#FFFFFF"/>
<path fill="#000000" d=" M 517.03 202.39 C 519.58 200.45 522.09 198.45 524.65 196.51 C 526.95 199.41 529.26 202.31 531.64 205.15 C 530.23 204.58 527.42 203.43 526.01 202.86 C 526.19 203.83 526.54 205.77 526.71 206.74 C 525.52 205.44 524.33 204.13 523.16 202.81 C 521.12 205.59 519.11 208.39 517.01 211.12 C 516.98 208.21 516.99 205.30 517.03 202.39 Z"/>
<path fill="#000000" d=" M 431.73 214.13 C 437.13 209.68 443.10 205.97 448.77 201.87 C 451.60 203.58 454.51 205.16 457.26 207.01 C 454.49 206.29 451.78 205.40 449.08 204.49 C 447.97 206.56 446.86 208.62 445.73 210.67 C 445.31 209.89 444.47 208.34 444.05 207.57 C 439.92 209.71 435.97 212.20 431.73 214.13 Z"/>
<path fill="#000000" d=" M 537.59 212.58 C 540.02 211.75 542.50 211.04 544.98 210.35 C 546.74 212.43 548.54 214.50 550.22 216.66 C 546.49 213.95 542.11 212.91 537.59 212.58 Z"/>
<path fill="#000000" d=" M 98.15 305.49 C 104.55 299.04 110.77 292.43 117.29 286.11 C 124.67 294.13 132.18 302.04 139.49 310.14 C 142.52 308.50 145.50 306.76 148.55 305.15 C 153.78 309.43 158.67 314.16 164.22 318.03 C 163.45 319.41 161.48 321.06 165.34 321.80 C 165.05 321.03 164.47 319.49 164.18 318.72 C 174.21 326.40 183.58 334.93 193.32 342.98 C 141.01 343.03 88.70 342.99 36.39 343.00 C 45.27 334.05 54.21 325.16 63.24 316.37 C 65.52 316.98 67.80 317.62 69.97 318.58 C 77.61 312.92 84.80 306.70 92.29 300.86 C 94.23 302.42 96.18 303.96 98.15 305.49 Z"/>
<path d=" M 117.51 287.83 C 130.97 301.96 144.63 315.90 158.21 329.92 C 148.32 323.43 138.48 316.85 128.58 310.36 C 126.91 309.39 125.12 307.71 123.08 308.78 C 118.34 310.56 114.17 313.53 109.92 316.22 C 111.69 309.24 111.97 301.99 112.00 294.83 C 113.82 292.48 115.66 290.15 117.51 287.83 Z" fill="#FFFFFF"/>
<path fill="#000000" d=" M 293.17 312.65 C 301.01 305.97 308.61 299.00 316.42 292.29 C 324.37 301.65 332.31 311.02 340.23 320.40 C 343.16 317.07 345.98 313.65 348.84 310.27 C 351.99 315.15 354.91 320.17 357.90 325.15 C 362.21 322.18 366.48 319.15 370.81 316.19 C 379.65 323.39 388.54 330.55 397.90 337.06 C 389.21 332.21 380.82 326.84 372.22 321.82 C 372.77 324.11 373.35 326.41 373.90 328.71 C 370.86 328.75 367.82 328.75 364.79 328.74 C 365.35 330.88 365.73 333.05 365.93 335.25 C 358.31 337.15 350.58 334.16 344.46 329.71 C 333.28 321.62 324.65 310.59 317.03 299.21 C 315.57 308.61 318.01 318.03 319.60 327.26 C 313.32 323.96 307.23 320.29 300.99 316.91 C 302.82 321.07 304.75 325.19 306.43 329.41 C 296.67 322.83 287.12 315.95 277.36 309.38 C 269.45 314.98 261.55 320.60 253.55 326.07 C 253.38 324.59 253.21 323.11 253.06 321.63 C 242.66 326.66 232.47 332.15 221.95 336.90 C 232.36 330.64 242.81 324.44 253.26 318.23 C 254.47 318.98 255.69 319.73 256.92 320.49 C 263.13 314.44 269.37 308.42 275.68 302.49 C 281.50 305.88 287.38 309.20 293.17 312.65 Z"/>
<path fill="#000000" d=" M 465.03 308.93 C 472.32 303.33 479.56 297.67 486.90 292.13 C 495.64 299.52 504.57 306.69 513.32 314.08 C 515.20 313.15 517.04 312.07 519.03 311.35 C 523.34 313.67 526.95 317.16 531.01 319.89 C 534.57 318.29 537.97 316.35 541.63 314.97 C 548.91 322.52 556.65 329.60 563.98 337.10 C 556.41 331.77 549.54 325.51 542.15 319.93 C 543.84 322.18 545.60 324.40 547.33 326.63 C 546.75 329.29 546.15 331.93 545.57 334.59 C 536.72 328.13 527.92 321.60 519.09 315.12 C 517.68 320.80 516.42 326.52 514.81 332.16 C 511.21 324.98 507.62 317.79 503.84 310.71 C 498.06 317.14 492.22 323.53 486.30 329.84 C 486.20 320.55 486.27 311.27 486.26 301.99 C 480.18 307.09 474.02 312.10 467.91 317.17 C 464.84 314.70 461.84 312.13 458.67 309.80 C 460.87 313.24 463.48 316.41 465.92 319.70 C 462.47 325.01 458.90 330.23 455.42 335.52 C 448.83 333.54 442.14 331.90 435.60 329.78 C 433.95 326.79 432.13 323.91 430.43 320.95 C 431.95 326.29 430.32 331.67 429.61 336.99 C 422.89 337.01 416.18 337.01 409.47 336.99 C 416.22 330.10 422.81 323.05 429.62 316.22 C 432.68 318.00 435.72 319.81 438.79 321.58 C 444.63 315.76 450.44 309.93 456.27 304.11 C 459.22 305.66 462.12 307.30 465.03 308.93 Z"/>
<path d=" M 82.90 319.10 C 83.31 311.78 91.13 308.59 93.14 301.95 C 94.48 303.49 95.83 305.03 97.20 306.56 C 92.37 310.67 87.88 315.17 82.90 319.10 Z" fill="#FFFFFF"/>
<path fill="#000000" d=" M 471.96 318.03 C 476.11 314.19 479.96 310.05 484.05 306.14 C 483.46 310.08 482.73 313.99 482.03 317.90 C 481.33 316.86 480.63 315.81 479.94 314.78 C 477.28 315.86 474.62 316.95 471.96 318.03 Z"/>
<path d=" M 148.29 306.58 C 153.20 310.29 157.66 314.57 162.62 318.21 C 162.13 318.44 161.65 318.67 161.16 318.90 C 160.27 318.01 159.35 317.15 158.41 316.32 C 157.28 317.30 156.15 318.29 155.03 319.28 C 151.04 316.23 148.70 311.55 148.29 306.58 Z" fill="#FFFFFF"/>
<path d=" M 64.23 317.96 C 65.94 318.18 67.64 318.39 69.35 318.69 C 65.84 321.83 61.67 324.12 57.80 326.77 C 59.91 323.80 64.10 321.98 64.23 317.96 Z" fill="#FFFFFF"/>
</svg>