<?xml version="1.0" encoding="utf-8"?>
<!-- Generator: Adobe Illustrator 16.0.3, SVG Export Plug-In . SVG Version: 6.00 Build 0)  -->
<!DOCTYPE svg PUBLIC "-//W3C//DTD SVG 1.1//EN" "http://www.w3.org/Graphics/SVG/1.1/DTD/svg11.dtd">
<svg version="1.1" id="Layer_1" xmlns="http://www.w3.org/2000/svg" xmlns:xlink="http://www.w3.org/1999/xlink" x="0px" y="0px"
	 width="500px" height="500px" viewBox="0 0 500 500" enable-background="new 0 0 500 500" xml:space="preserve">
<rect x="356.596" y="261.805" width="17.362" height="17.362"/>
<rect x="336.873" y="261.805" width="17.362" height="17.362"/>
<polyline points="396.041,279.168 396.041,261.806 413.403,261.806 413.403,279.168 "/>
<polyline points="376.318,279.168 376.318,261.806 393.681,261.806 393.681,279.168 "/>
<polyline points="415.765,279.168 415.765,261.806 433.126,261.806 433.126,279.168 "/>
<polyline points="435.487,279.168 435.487,261.806 452.849,261.806 452.849,279.168 "/>
<rect x="317.15" y="261.805" width="17.361" height="17.362"/>
<g>
	<defs>
		<rect id="SVGID_1_" width="500" height="500"/>
	</defs>
	<clipPath id="SVGID_2_">
		<use xlink:href="#SVGID_1_"  overflow="visible"/>
	</clipPath>
	<path clip-path="url(#SVGID_2_)" d="M54.546,316.503c0,1.618,0.275,2.998,0.828,4.144c0.552,1.144,1.321,2.08,2.308,2.81
		c0.986,0.73,2.12,1.264,3.402,1.598c1.282,0.336,2.672,0.504,4.172,0.504c1.617,0,2.997-0.188,4.142-0.563
		c1.143-0.374,2.07-0.856,2.78-1.45c0.711-0.59,1.223-1.271,1.539-2.041c0.315-0.769,0.473-1.548,0.473-2.337
		c0-1.615-0.365-2.811-1.094-3.578c-0.731-0.77-1.53-1.313-2.397-1.629c-1.5-0.552-3.245-1.073-5.236-1.567
		c-1.993-0.493-4.448-1.133-7.367-1.923c-1.815-0.474-3.324-1.096-4.526-1.863c-1.204-0.77-2.16-1.628-2.87-2.575
		c-0.71-0.945-1.213-1.952-1.508-3.017c-0.297-1.065-0.444-2.15-0.444-3.254c0-2.13,0.444-3.975,1.331-5.533
		c0.887-1.557,2.06-2.85,3.52-3.876c1.459-1.024,3.116-1.783,4.971-2.277c1.853-0.493,3.727-0.74,5.621-0.74
		c2.208,0,4.289,0.287,6.242,0.858c1.952,0.572,3.668,1.431,5.147,2.575c1.48,1.144,2.653,2.554,3.521,4.229
		c0.867,1.679,1.302,3.62,1.302,5.828h-7.396c-0.198-2.72-1.125-4.643-2.781-5.768c-1.657-1.124-3.767-1.687-6.331-1.687
		c-0.869,0-1.756,0.089-2.663,0.266c-0.908,0.178-1.736,0.474-2.485,0.888c-0.75,0.414-1.371,0.977-1.864,1.687
		c-0.494,0.709-0.739,1.598-0.739,2.662c0,1.5,0.463,2.673,1.39,3.521c0.927,0.849,2.139,1.49,3.639,1.923
		c0.157,0.04,0.779,0.207,1.864,0.504c1.084,0.296,2.297,0.621,3.638,0.976c1.341,0.355,2.653,0.701,3.935,1.035
		c1.282,0.336,2.199,0.583,2.752,0.74c1.38,0.436,2.583,1.026,3.609,1.775c1.026,0.75,1.884,1.606,2.574,2.572
		c0.689,0.969,1.203,2.003,1.538,3.108c0.335,1.104,0.503,2.208,0.503,3.313c0,2.366-0.484,4.388-1.45,6.064
		c-0.967,1.677-2.239,3.046-3.816,4.112c-1.578,1.063-3.373,1.844-5.384,2.337c-2.012,0.493-4.063,0.74-6.154,0.74
		c-2.407,0-4.674-0.298-6.804-0.888c-2.13-0.593-3.985-1.5-5.562-2.723c-1.578-1.221-2.84-2.789-3.787-4.704
		c-0.946-1.912-1.441-4.172-1.479-6.775H54.546z"/>
	<path clip-path="url(#SVGID_2_)" d="M88.805,299.995h6.39v4.497l0.118,0.119c1.025-1.696,2.367-3.027,4.024-3.995
		c1.657-0.966,3.491-1.449,5.502-1.449c3.353,0,5.996,0.868,7.929,2.604c1.932,1.737,2.899,4.34,2.899,7.81v21.006h-6.745v-19.229
		c-0.08-2.406-0.592-4.151-1.539-5.236c-0.946-1.085-2.426-1.628-4.437-1.628c-1.145,0-2.17,0.207-3.077,0.622
		c-0.907,0.414-1.677,0.987-2.308,1.715c-0.63,0.731-1.123,1.589-1.479,2.575c-0.354,0.985-0.532,2.032-0.532,3.135v18.047h-6.745
		V299.995z"/>
	<path clip-path="url(#SVGID_2_)" d="M138.505,331.415c-2.446,0-4.625-0.405-6.538-1.214c-1.913-0.808-3.53-1.924-4.851-3.343
		c-1.323-1.42-2.329-3.116-3.019-5.089c-0.69-1.971-1.035-4.141-1.035-6.509c0-2.327,0.345-4.476,1.035-6.449
		c0.69-1.972,1.696-3.669,3.019-5.088c1.321-1.42,2.938-2.534,4.851-3.343c1.913-0.807,4.092-1.214,6.538-1.214
		c2.445,0,4.625,0.407,6.538,1.214c1.913,0.809,3.53,1.923,4.852,3.343c1.321,1.419,2.327,3.116,3.018,5.088
		c0.689,1.974,1.035,4.122,1.035,6.449c0,2.368-0.346,4.538-1.035,6.509c-0.691,1.973-1.697,3.669-3.018,5.089
		c-1.322,1.419-2.939,2.535-4.852,3.343C143.13,331.01,140.95,331.415,138.505,331.415 M138.505,326.089
		c1.499,0,2.801-0.315,3.905-0.945c1.104-0.631,2.012-1.459,2.722-2.486c0.71-1.025,1.232-2.179,1.568-3.46
		c0.335-1.283,0.503-2.595,0.503-3.937c0-1.301-0.168-2.603-0.503-3.905c-0.336-1.301-0.858-2.456-1.568-3.46
		c-0.71-1.007-1.618-1.824-2.722-2.456c-1.104-0.631-2.406-0.946-3.905-0.946s-2.801,0.315-3.905,0.946
		c-1.104,0.632-2.012,1.449-2.721,2.456c-0.711,1.004-1.234,2.159-1.569,3.46c-0.335,1.303-0.503,2.604-0.503,3.905
		c0,1.342,0.168,2.653,0.503,3.937c0.335,1.281,0.858,2.435,1.569,3.46c0.709,1.027,1.617,1.855,2.721,2.486
		C135.705,325.773,137.006,326.089,138.505,326.089"/>
	<polygon clip-path="url(#SVGID_2_)" points="158.503,299.995 165.664,299.995 171.64,322.835 171.759,322.835 177.497,299.995 
		184.302,299.995 189.805,322.835 189.922,322.835 196.135,299.995 202.999,299.995 193.414,330.586 186.491,330.586 
		180.811,307.865 180.691,307.865 175.071,330.586 167.971,330.586 	"/>
	<path clip-path="url(#SVGID_2_)" d="M229.684,310.232c-0.277-1.894-1.035-3.322-2.278-4.29c-1.243-0.967-2.811-1.45-4.704-1.45
		c-0.868,0-1.795,0.148-2.781,0.443c-0.987,0.297-1.894,0.849-2.722,1.658c-0.828,0.809-1.519,1.933-2.07,3.373
		c-0.553,1.438-0.829,3.323-0.829,5.648c0,1.265,0.148,2.525,0.443,3.788c0.296,1.263,0.77,2.387,1.421,3.372
		c0.651,0.988,1.489,1.785,2.514,2.397c1.026,0.61,2.268,0.916,3.728,0.916c1.972,0,3.599-0.61,4.882-1.833
		c1.28-1.224,2.08-2.938,2.396-5.149h6.745c-0.631,3.986-2.14,7.032-4.526,9.144c-2.388,2.109-5.553,3.164-9.497,3.164
		c-2.406,0-4.526-0.404-6.361-1.214c-1.834-0.807-3.383-1.911-4.644-3.312c-1.263-1.4-2.219-3.068-2.87-5
		c-0.651-1.934-0.977-4.024-0.977-6.273c0-2.287,0.316-4.436,0.947-6.449c0.631-2.011,1.577-3.757,2.84-5.234
		c1.263-1.48,2.83-2.643,4.704-3.491c1.873-0.848,4.073-1.272,6.598-1.272c1.775,0,3.461,0.228,5.059,0.68
		c1.598,0.455,3.017,1.135,4.26,2.042c1.243,0.908,2.257,2.051,3.047,3.432c0.789,1.381,1.262,3.018,1.42,4.911H229.684z"/>
	<path clip-path="url(#SVGID_2_)" d="M269.269,323.782c0,0.828,0.108,1.419,0.325,1.774c0.218,0.355,0.641,0.532,1.273,0.532h0.709
		c0.276,0,0.593-0.039,0.947-0.117v4.674c-0.237,0.078-0.542,0.167-0.918,0.267c-0.375,0.098-0.76,0.186-1.154,0.266
		c-0.394,0.079-0.788,0.138-1.183,0.178c-0.396,0.038-0.73,0.059-1.006,0.059c-1.382,0-2.525-0.276-3.433-0.828
		s-1.499-1.518-1.775-2.898c-1.341,1.302-2.987,2.247-4.939,2.84c-1.953,0.592-3.837,0.887-5.651,0.887
		c-1.381,0-2.702-0.188-3.964-0.562c-1.263-0.373-2.377-0.927-3.343-1.656c-0.967-0.73-1.737-1.656-2.308-2.781
		c-0.572-1.124-0.858-2.435-0.858-3.934c0-1.895,0.345-3.433,1.036-4.617c0.69-1.184,1.597-2.109,2.722-2.78
		c1.124-0.67,2.386-1.154,3.787-1.451c1.399-0.295,2.81-0.521,4.229-0.678c1.223-0.238,2.387-0.405,3.491-0.504
		c1.104-0.098,2.08-0.267,2.93-0.503c0.848-0.237,1.518-0.603,2.011-1.094c0.493-0.493,0.74-1.233,0.74-2.221
		c0-0.866-0.207-1.575-0.621-2.13c-0.414-0.552-0.929-0.976-1.538-1.271c-0.613-0.297-1.293-0.493-2.042-0.594
		c-0.75-0.098-1.46-0.146-2.13-0.146c-1.894,0-3.452,0.395-4.675,1.183c-1.223,0.789-1.913,2.013-2.07,3.669h-6.746
		c0.119-1.973,0.592-3.609,1.421-4.911c0.828-1.302,1.883-2.347,3.165-3.137c1.282-0.788,2.73-1.34,4.349-1.656
		c1.617-0.314,3.274-0.474,4.971-0.474c1.499,0,2.978,0.159,4.438,0.474c1.459,0.316,2.771,0.828,3.936,1.539
		c1.162,0.709,2.1,1.626,2.811,2.751c0.71,1.123,1.064,2.494,1.064,4.112V323.782z M262.523,315.261
		c-1.026,0.671-2.288,1.075-3.787,1.213c-1.499,0.139-2.998,0.347-4.497,0.622c-0.71,0.118-1.4,0.287-2.07,0.502
		c-0.672,0.219-1.263,0.515-1.774,0.889c-0.515,0.375-0.918,0.868-1.214,1.479c-0.295,0.612-0.444,1.353-0.444,2.22
		c0,0.749,0.217,1.382,0.651,1.894c0.434,0.513,0.956,0.916,1.568,1.213c0.612,0.295,1.282,0.502,2.012,0.621
		c0.73,0.117,1.391,0.177,1.983,0.177c0.748,0,1.557-0.098,2.426-0.296c0.866-0.197,1.687-0.533,2.455-1.006s1.41-1.074,1.922-1.804
		c0.513-0.729,0.771-1.628,0.771-2.692V315.261z"/>
	<path clip-path="url(#SVGID_2_)" d="M278.44,299.995h6.389v4.144h0.119c0.946-1.776,2.268-3.048,3.965-3.817
		c1.695-0.769,3.529-1.153,5.502-1.153c2.406,0,4.507,0.425,6.301,1.272c1.795,0.849,3.284,2.011,4.469,3.491
		c1.184,1.478,2.07,3.205,2.662,5.176c0.591,1.974,0.889,4.083,0.889,6.332c0,2.051-0.267,4.043-0.8,5.975
		c-0.532,1.934-1.342,3.64-2.427,5.119c-1.085,1.479-2.454,2.663-4.111,3.551s-3.608,1.33-5.857,1.33
		c-0.987,0-1.973-0.088-2.958-0.267c-0.987-0.176-1.934-0.463-2.841-0.857c-0.907-0.394-1.745-0.896-2.516-1.508
		c-0.769-0.611-1.409-1.333-1.923-2.161h-0.117v15.267h-6.745V299.995z M301.989,315.32c0-1.38-0.179-2.722-0.533-4.023
		c-0.355-1.303-0.887-2.456-1.597-3.46c-0.709-1.008-1.598-1.814-2.663-2.428c-1.064-0.609-2.289-0.917-3.667-0.917
		c-2.842,0-4.981,0.987-6.42,2.958c-1.442,1.974-2.161,4.597-2.161,7.87c0,1.539,0.188,2.969,0.562,4.29
		c0.375,1.321,0.938,2.456,1.688,3.401c0.749,0.947,1.646,1.697,2.691,2.249c1.044,0.554,2.259,0.828,3.641,0.828
		c1.537,0,2.839-0.314,3.904-0.945c1.064-0.631,1.942-1.451,2.633-2.456c0.689-1.006,1.183-2.151,1.479-3.431
		C301.841,317.974,301.989,316.662,301.989,315.32"/>
	<path clip-path="url(#SVGID_2_)" d="M316.308,288.34h13.845c3.787,0,6.933,0.592,9.438,1.774c2.504,1.184,4.505,2.764,6.004,4.734
		c1.5,1.972,2.554,4.221,3.167,6.746c0.609,2.523,0.917,5.128,0.917,7.81c0,2.998-0.386,5.789-1.154,8.372
		c-0.769,2.584-1.963,4.821-3.58,6.715c-1.617,1.895-3.659,3.385-6.124,4.468c-2.466,1.085-5.395,1.628-8.787,1.628h-13.726V288.34z
		 M330.271,328.338c1.971,0,3.953-0.306,5.945-0.916c1.992-0.612,3.796-1.639,5.414-3.077c1.618-1.44,2.929-3.373,3.936-5.799
		c1.006-2.427,1.508-5.475,1.508-9.142c0-2.88-0.287-5.345-0.857-7.396c-0.572-2.053-1.321-3.777-2.247-5.179
		c-0.928-1.399-1.994-2.504-3.196-3.313c-1.204-0.809-2.446-1.43-3.727-1.865c-1.283-0.433-2.565-0.719-3.848-0.856
		c-1.282-0.139-2.435-0.207-3.461-0.207H318.91v37.749H330.271z"/>
	<path clip-path="url(#SVGID_2_)" d="M355.535,288.34h2.249v6.094h-2.249V288.34z M355.535,300.174h2.249v30.413h-2.249V300.174z"/>
	<path clip-path="url(#SVGID_2_)" d="M389.679,300.174v28.815c0,1.694-0.199,3.342-0.592,4.94c-0.395,1.598-1.075,3.007-2.038,4.231
		c-0.964,1.221-2.292,2.196-3.983,2.927c-1.692,0.73-3.836,1.095-6.433,1.095c-1.615,0-3.131-0.167-4.547-0.503
		c-1.416-0.335-2.657-0.868-3.72-1.597c-1.063-0.73-1.917-1.696-2.567-2.9c-0.649-1.204-1.013-2.691-1.093-4.467h2.25
		c0.119,1.34,0.453,2.485,1.005,3.432c0.553,0.947,1.271,1.726,2.161,2.338c0.887,0.61,1.881,1.056,2.988,1.331
		c1.104,0.274,2.286,0.414,3.551,0.414c2.089,0,3.832-0.315,5.235-0.946c1.4-0.631,2.514-1.449,3.342-2.456
		c0.828-1.006,1.409-2.15,1.746-3.432c0.334-1.282,0.504-2.574,0.504-3.876v-6.981h-0.173c-1.063,2.248-2.51,3.964-4.34,5.148
		c-1.83,1.183-4.045,1.775-6.643,1.775c-2.24,0-4.179-0.385-5.813-1.154c-1.634-0.769-2.992-1.835-4.074-3.195
		c-1.085-1.361-1.891-2.948-2.42-4.763c-0.533-1.814-0.797-3.788-0.797-5.918c0-2.011,0.283-3.924,0.857-5.739
		c0.571-1.813,1.409-3.401,2.514-4.763c1.104-1.36,2.475-2.445,4.111-3.255c1.638-0.807,3.522-1.212,5.65-1.212
		c2.408,0,4.626,0.612,6.658,1.833c2.032,1.223,3.479,2.96,4.349,5.207h0.119v-6.33H389.679z M376.362,301.416
		c-1.852,0-3.46,0.376-4.822,1.124c-1.36,0.751-2.483,1.736-3.37,2.959c-0.889,1.223-1.56,2.613-2.013,4.172
		c-0.456,1.558-0.68,3.146-0.68,4.762c0,1.775,0.224,3.462,0.68,5.06c0.453,1.597,1.144,2.988,2.071,4.172
		c0.927,1.183,2.07,2.12,3.431,2.81c1.361,0.69,2.928,1.035,4.703,1.035c1.855,0,3.473-0.354,4.854-1.063
		c1.38-0.711,2.531-1.678,3.46-2.9c0.928-1.222,1.617-2.613,2.07-4.172c0.452-1.558,0.681-3.203,0.681-4.94
		c0-1.694-0.229-3.332-0.681-4.911c-0.453-1.576-1.143-2.968-2.07-4.17c-0.929-1.204-2.08-2.161-3.46-2.87
		C379.835,301.771,378.218,301.416,376.362,301.416"/>
	<path clip-path="url(#SVGID_2_)" d="M396.538,288.34h2.249v6.094h-2.249V288.34z M396.538,300.174h2.249v30.413h-2.249V300.174z"/>
	<path clip-path="url(#SVGID_2_)" d="M416.774,302.125h-6.627v21.243c0,1.224,0.138,2.189,0.414,2.899
		c0.276,0.709,0.7,1.252,1.272,1.627c0.571,0.376,1.262,0.602,2.07,0.681c0.807,0.078,1.745,0.099,2.812,0.058v1.953
		c-1.146,0.078-2.26,0.069-3.345-0.028c-1.085-0.099-2.041-0.396-2.87-0.889c-0.827-0.491-1.488-1.231-1.981-2.219
		c-0.493-0.985-0.7-2.347-0.621-4.082v-21.243h-5.621v-1.951h5.621v-9.467h2.249v9.467h6.627V302.125z"/>
	<path clip-path="url(#SVGID_2_)" d="M440.736,324.552h-0.119c-0.354,0.907-0.868,1.765-1.537,2.572
		c-0.671,0.81-1.49,1.529-2.456,2.16c-0.968,0.631-2.063,1.124-3.284,1.48c-1.223,0.354-2.564,0.53-4.023,0.53
		c-3.234,0-5.74-0.699-7.513-2.099c-1.775-1.399-2.663-3.56-2.663-6.479c0-1.775,0.354-3.225,1.063-4.349
		c0.711-1.125,1.607-2.013,2.693-2.663c1.084-0.65,2.288-1.113,3.608-1.391c1.321-0.275,2.594-0.474,3.816-0.591l3.491-0.297
		c1.617-0.117,2.889-0.306,3.816-0.563c0.927-0.255,1.626-0.611,2.101-1.063c0.473-0.454,0.77-1.035,0.887-1.746
		c0.119-0.709,0.178-1.598,0.178-2.663c0-0.828-0.158-1.598-0.473-2.307c-0.316-0.711-0.809-1.342-1.48-1.894
		c-0.671-0.552-1.537-0.986-2.603-1.302c-1.063-0.315-2.366-0.474-3.905-0.474c-2.721,0-4.922,0.67-6.597,2.012
		c-1.678,1.342-2.594,3.374-2.751,6.094h-2.249c0.157-3.352,1.233-5.866,3.225-7.544c1.991-1.675,4.821-2.513,8.49-2.513
		s6.34,0.719,8.019,2.158c1.675,1.439,2.515,3.324,2.515,5.651v17.691c0,0.435,0.009,0.867,0.029,1.302
		c0.019,0.435,0.089,0.828,0.207,1.183c0.117,0.354,0.315,0.643,0.592,0.858c0.275,0.217,0.671,0.324,1.183,0.324
		c0.396,0,0.947-0.058,1.656-0.177v1.895c-0.59,0.157-1.204,0.235-1.833,0.235c-0.908,0-1.627-0.118-2.16-0.354
		c-0.533-0.237-0.937-0.552-1.214-0.947c-0.276-0.393-0.463-0.858-0.561-1.39c-0.099-0.533-0.148-1.114-0.148-1.746V324.552z
		 M440.736,313.31c-0.552,0.671-1.39,1.124-2.515,1.36c-1.124,0.236-2.377,0.414-3.759,0.531l-3.785,0.357
		c-1.104,0.117-2.211,0.285-3.313,0.502c-1.106,0.217-2.101,0.583-2.988,1.095c-0.888,0.513-1.608,1.213-2.159,2.102
		c-0.554,0.887-0.829,2.04-0.829,3.46c0,2.249,0.711,3.915,2.132,5c1.418,1.085,3.372,1.627,5.855,1.627
		c2.564,0,4.597-0.463,6.096-1.39c1.499-0.928,2.642-1.991,3.431-3.195c0.79-1.202,1.292-2.368,1.509-3.491
		c0.217-1.124,0.326-1.883,0.326-2.278V313.31z"/>
	<rect x="450.321" y="288.339" clip-path="url(#SVGID_2_)" width="2.249" height="42.247"/>
	<path clip-path="url(#SVGID_2_)" fill="#010101" d="M315.026,278.917c-126.012,0.11-141.195,0.021-267.185,0.044l-0.144-26.367
		c6.375-2.97,15.467-10.561,23.584-16.583c14.5-5.441,18.368-11.417,25.568-15.191c5.387-4.809,11.682-3.809,16.182-8.775
		c5.42-3.277,9.136-9.172,19.5-12.517c9.75,0,17.604-14.133,25.531-15.992c8.969-1.093,31.574-9.525,45.936-15.391
		c16.418-8.55,23.125-7.105,26.916-10.328c7.72,8.559,8.617,2.194,16.435,9.328c4.848,0.596,6.92,4.919,9.28,4.5l5.22,2.142
		c5.073-1.853,6.015,3.358,14.3,3.858c11.215,8.033,9.799,6,15.2,6.5c7.786,1.345,17.772-3.68,23.292-1.979"/>
	<path clip-path="url(#SVGID_2_)" fill="#FFFFFF" d="M225.85,177.145c9.837,10.234,37.912,25.404,45.5,37.426
		c-2.801,5.756,0.623,17.5,1.174,23.985c-14,0-24.302,9.022-30.532,11.737c-0.618,6.176-22.914-73.302-23.642-67.148
		c-3.529-14.844,15.5,19.256,21.5,18.763C234.952,191.431,228.275,188.416,225.85,177.145"/>
	<path clip-path="url(#SVGID_2_)" fill="#FFFFFF" d="M302.989,218.805c4.042,12.477-18.896-5.708-23.549-7.252
		c0-2.867-15.917-12.603-15.917-15.471c-2.802-2.757-25.373-20.166-28.174-22.923c0.927-1.831,32.192,20.958,33.118,19.127"/>
	<path clip-path="url(#SVGID_2_)" fill="#FFFFFF" d="M193.24,197.672c4.522,3.264,9.043,6.551,13.609,9.793
		c5.823-0.022,0.155-15.88,6-15.902c-2.779,2.029,8.345,12.574,5.566,14.582c4.169,5.382,1.179,41.229,10.934,52.829
		c-9.22-4.103-18.728-37.833-27.816-42.201c-0.022-4.918-2.002-5.926-6.184-9.93C195.349,203.314,193.218,201.201,193.24,197.672"/>
	<path clip-path="url(#SVGID_2_)" fill="#FFFFFF" d="M88.805,238.528c18.27-13.176,37.242-25.429,49.701-27.681
		c2.938,0.747,39.827-10.62,42.765-10.812c0.899-0.059-2.23,4.26-1.968,5.121c2.147,7.046,15.149,39.625-3.272,37.855
		c-5.499,1.764-34.546-20.426-44.293-18.664C131.738,224.347,87.768,239.276,88.805,238.528"/>
	<path clip-path="url(#SVGID_2_)" fill="#FFFFFF" d="M314.739,202.417l0.12,17.516c-15.677-11.053-35.693-24.465-35.693-27.332
		c-2.802-2.758-35.5-22-38.301-24.757c0.926-1.831,37.074,21.164,38,19.333"/>
	<path clip-path="url(#SVGID_2_)" fill="#FFFFFF" d="M201.85,186.145c2.149-3.5,27.5-20.5,27.5-22.25s-39.713,17.513-39.713,17.513
		s-36.501,8.756-39.501,13.985c-2.672,4.657,20.464-4.748,34.714-2.992C190.017,193.038,199.7,189.645,201.85,186.145"/>
	<rect x="356.596" y="241.612" clip-path="url(#SVGID_2_)" width="17.362" height="17.362"/>
	<rect x="356.596" y="221.889" clip-path="url(#SVGID_2_)" fill="#FFFFFF" width="17.362" height="17.362"/>
	<rect x="336.873" y="221.889" clip-path="url(#SVGID_2_)" fill="#FFFFFF" width="17.362" height="17.362"/>
	<rect x="336.873" y="241.612" clip-path="url(#SVGID_2_)" width="17.362" height="17.362"/>
	<rect x="396.042" y="241.612" clip-path="url(#SVGID_2_)" fill="#FFFFFF" width="17.362" height="17.362"/>
	<polyline clip-path="url(#SVGID_2_)" points="413.403,221.888 413.403,239.25 396.042,239.25 396.042,221.888 	"/>
	<polyline clip-path="url(#SVGID_2_)" points="393.681,221.888 393.681,239.25 376.318,239.25 376.318,221.888 	"/>
	<rect x="376.319" y="241.612" clip-path="url(#SVGID_2_)" width="17.361" height="17.362"/>
	<rect x="356.596" y="202.166" clip-path="url(#SVGID_2_)" width="17.362" height="17.362"/>
	<rect x="336.873" y="202.166" clip-path="url(#SVGID_2_)" width="17.362" height="17.362"/>
	<rect x="415.765" y="241.612" clip-path="url(#SVGID_2_)" width="17.362" height="17.362"/>
	<rect x="317.15" y="221.889" clip-path="url(#SVGID_2_)" width="17.361" height="17.362"/>
	<rect x="317.15" y="241.612" clip-path="url(#SVGID_2_)" width="17.361" height="17.362"/>
	<rect x="317.15" y="202.166" clip-path="url(#SVGID_2_)" fill="#FFFFFF" width="17.361" height="17.362"/>
	<rect x="317.15" y="182.443" clip-path="url(#SVGID_2_)" width="17.361" height="17.362"/>
	<rect x="336.873" y="182.166" clip-path="url(#SVGID_2_)" width="17.362" height="17.362"/>
</g>
</svg>
