<svg xmlns="http://www.w3.org/2000/svg" xmlns:xlink="http://www.w3.org/1999/xlink" viewBox="0 0 500 500">
  <path d="M356.6 261.8h17.36v17.37H356.6zm-19.73 0h17.36v17.37h-17.36zm59.17 17.37V261.8h17.36v17.37m-37.08 0V261.8h17.36v17.37m22.08 0V261.8h17.37v17.37m2.37 0V261.8h17.35v17.37m-135.7-17.37h17.36v17.37h-17.3z"/>
  <defs>
    <path id="a" d="M0 0h500v500H0z"/>
  </defs>
  <clipPath id="b">
    <use xlink:href="#a" overflow="visible"/>
  </clipPath>
  <path d="M54.55 316.5c0 1.62.27 3 .82 4.15.56 1.14 1.33 2.08 2.3 2.8 1 .74 2.13 1.27 3.4 1.6 1.3.34 2.7.5 4.2.5 1.6 0 2.98-.18 4.13-.55 1.14-.38 2.07-.86 2.78-1.45.7-.6 1.22-1.27 1.54-2.04.3-.7.47-1.5.47-2.3 0-1.6-.4-2.8-1.1-3.6-.8-.7-1.6-1.3-2.4-1.6-1.5-.5-3.3-1-5.3-1.5s-4.5-1.1-7.4-1.9c-1.9-.4-3.4-1.1-4.6-1.8-1.2-.7-2.2-1.6-2.9-2.5-.7-.9-1.2-1.9-1.5-3-.3-1-.5-2.1-.5-3.2 0-2.1.4-3.9 1.3-5.5.9-1.5 2.1-2.8 3.5-3.9 1.4-1 3.1-1.8 4.9-2.3 1.8-.5 3.7-.7 5.6-.7 2.2 0 4.3.3 6.2.9 1.9.6 3.7 1.4 5.1 2.6 1.5 1.2 2.6 2.6 3.5 4.2.8 1.7 1.3 3.6 1.3 5.8h-7c-.2-2.7-1.2-4.6-2.8-5.8-1.7-1.1-3.8-1.7-6.4-1.7-.9 0-1.8.1-2.7.3-.9.2-1.8.5-2.5.9s-1.4 1-1.9 1.7-.8 1.6-.8 2.7c0 1.5.4 2.7 1.4 3.6.9.8 2.1 1.5 3.6 1.9l1.8.5 3.6 1 3.9 1 2.7.8c1.3.5 2.6 1.1 3.6 1.8 1 .8 1.9 1.6 2.6 2.6.6 1 1.2 2 1.5 3.1.3 1.1.5 2.3.5 3.4 0 2.4-.5 4.4-1.5 6.1-1 1.7-2.2 3.1-3.8 4.2-1.6 1.1-3.4 1.8-5.4 2.3-2 .5-4.1.7-6.2.7-2.4 0-4.7-.3-6.8-.9-2.1-.6-4-1.5-5.6-2.7-1.6-1.2-2.9-2.8-3.8-4.7-1-1.9-1.4-4.2-1.5-6.8H54zM88.8 300h6.4v4.5l.1.1c1.04-1.68 2.38-3.02 4.04-3.98 1.65-.97 3.5-1.45 5.5-1.45 3.35 0 6 .87 7.93 2.6 1.93 1.74 2.9 4.34 2.9 7.8v21.02h-6.75v-19.3c-.08-2.4-.6-4.2-1.54-5.3-.94-1.1-2.42-1.7-4.43-1.7-1.15 0-2.17.2-3.08.6-.9.4-1.68.9-2.3 1.7-.64.7-1.13 1.6-1.5 2.6-.34.9-.52 2-.52 3.1v18H88.8V300zm49.7 31.42c-2.44 0-4.62-.4-6.53-1.22-1.92-.8-3.53-1.92-4.85-3.34-1.33-1.42-2.33-3.12-3.02-5.1-.7-1.96-1.04-4.13-1.04-6.5 0-2.33.35-4.48 1.04-6.45.7-1.9 1.7-3.6 3.02-5s2.93-2.5 4.85-3.3c1.9-.8 4.1-1.2 6.53-1.2 2.45 0 4.63.4 6.54 1.2 1.92.8 3.53 1.9 4.86 3.4 1.32 1.4 2.32 3.1 3 5.1.7 2 1.05 4.1 1.05 6.5 0 2.4-.35 4.6-1.04 6.5-.6 2-1.6 3.7-3 5.1-1.3 1.5-2.9 2.6-4.8 3.4-1.9.8-4.1 1.3-6.5 1.3m0-5.3c1.5 0 2.8-.3 3.9-.9 1.1-.6 2-1.4 2.8-2.5.7-1 1.3-2.1 1.6-3.4.4-1.2.5-2.6.5-3.9 0-1.3-.1-2.6-.5-3.9-.3-1.3-.8-2.4-1.5-3.4s-1.6-1.8-2.7-2.4c-1.1-.6-2.4-.9-3.9-.9s-2.8.3-3.9.9c-1.1.7-2 1.5-2.7 2.5-.7 1-1.2 2.2-1.5 3.5-.3 1.3-.5 2.6-.5 3.9 0 1.4.2 2.7.5 4 .4 1.3.9 2.4 1.6 3.5.7 1 1.7 1.9 2.8 2.5 1.1.6 2.4 1 3.9 1m19.9-26.2h7.1l6 22.9h.1l5.7-22.9h6.8l5.5 22.9h.2l6.2-22.8h6.8l-9.6 30.6h-6.9l-5.8-22.8h-.1l-5.6 22.7H168m61.7-20.4c-.25-1.9-1-3.3-2.25-4.3-1.2-1-2.8-1.5-4.7-1.5-.8 0-1.8.1-2.7.4-1 .3-1.9.9-2.7 1.7-.8.8-1.5 1.9-2 3.4-.52 1.4-.8 3.3-.8 5.7 0 1.3.16 2.5.45 3.8.3 1.3.78 2.4 1.4 3.4.68 1 1.5 1.8 2.55 2.4 1 .6 2.23.9 3.7.9 1.96 0 3.6-.6 4.9-1.9 1.25-1.2 2.05-2.9 2.36-5.1h6.8c-.6 4-2.1 7-4.5 9.1-2.4 2.1-5.6 3.1-9.5 3.1-2.4 0-4.6-.4-6.4-1.2-1.8-.8-3.4-1.9-4.6-3.3s-2.2-3.02-2.9-5c-.6-1.9-1-4-1-6.3 0-2.2.3-4.4.9-6.4.7-2 1.6-3.7 2.9-5.2 1.2-1.5 2.8-2.7 4.7-3.5 1.9-.9 4.1-1.3 6.6-1.3 1.8 0 3.4.2 5 .7 1.6.4 3.1 1.1 4.3 2 1.3.9 2.3 2 3.1 3.4.8 1.4 1.3 3 1.5 4.9H230zm39.6 13.5c0 .8.1 1.4.33 1.8.2.3.6.5 1.2.5h.7c.3 0 .6 0 .9-.1v4.6l-.9.3-1.2.3c-.4.1-.8.2-1.2.2-.4.1-.76.1-1 .1-1.4 0-2.56-.3-3.47-.8s-1.5-1.5-1.8-2.9c-1.3 1.3-2.9 2.2-4.9 2.8-1.9.6-3.8.9-5.6.9-1.4 0-2.7-.2-3.95-.6-1.3-.4-2.4-.9-3.3-1.6-.9-.7-1.7-1.6-2.3-2.8-.5-1.1-.8-2.4-.8-3.9 0-1.9.4-3.4 1.1-4.6.7-1.2 1.6-2.1 2.8-2.8 1.2-.7 2.4-1.1 3.8-1.4 1.4-.3 2.8-.5 4.3-.6 1.2-.2 2.4-.4 3.5-.5 1.1-.1 2.1-.2 2.9-.5.8-.2 1.5-.6 2-1.1.5-.5.7-1.2.7-2.2 0-.8-.2-1.5-.6-2.1-.4-.5-.9-.9-1.5-1.2-.6-.3-1.3-.5-2-.6-.7-.1-1.4-.1-2.1-.1-1.9 0-3.4.4-4.7 1.2-1.2.8-1.9 2-2 3.7h-7c.1-2 .6-3.6 1.5-4.9.8-1.3 1.9-2.3 3.2-3.1 1.2-.8 2.7-1.3 4.3-1.7 1.6-.3 3.2-.4 4.9-.4 1.5 0 3 .16 4.4.47 1.4.3 2.7.8 3.9 1.5 1.1.7 2.1 1.6 2.8 2.75.7 1.2 1 2.5 1 4.1v15zm-6.74-8.5c-1 .7-2.2 1.1-3.7 1.2-1.5.1-3 .4-4.5.6-.7.1-1.4.3-2.08.5-.67.2-1.26.5-1.77.9-.5.4-.9.9-1.2 1.5-.3.6-.4 1.4-.4 2.2 0 .8.2 1.4.7 1.9.4.5.9.9 1.5 1.2.6.3 1.3.5 2 .7s1.4.2 2 .2c.7 0 1.5-.1 2.4-.3.8-.2 1.7-.5 2.4-1s1.4-1.1 1.9-1.8.8-1.6.8-2.7v-5zm16-15.2h6.4v4.1h.1c.94-1.8 2.27-3 3.96-3.8 1.7-.8 3.6-1.1 5.6-1.1 2.4 0 4.5.5 6.3 1.3 1.8.9 3.3 2 4.5 3.5 1.2 1.5 2.1 3.2 2.7 5.2.6 2 .9 4.1.9 6.4 0 2.1-.3 4-.8 6-.5 1.9-1.3 3.6-2.4 5.1s-2.45 2.7-4.1 3.6-3.6 1.3-5.86 1.3c-1 0-2-.1-3-.2-.96-.2-1.9-.4-2.82-.8-.9-.4-1.74-.9-2.5-1.5-.8-.6-1.42-1.3-1.94-2.1h-.1v15h-6.74v-42zm23.44 15c0-1.3-.2-2.7-.54-4-.36-1.3-.9-2.4-1.6-3.4-.7-1-1.6-1.8-2.66-2.4-1.07-.6-2.3-.9-3.67-.9-2.84 0-4.98.9-6.42 2.9-1.4 1.9-2.1 4.6-2.1 7.8 0 1.5.2 2.9.6 4.3.4 1.3 1 2.4 1.7 3.4.8.9 1.7 1.7 2.7 2.2 1.1.5 2.3.8 3.7.8 1.6 0 2.9-.4 3.9-1 1.1-.7 2-1.5 2.7-2.5.7-1.1 1.2-2.2 1.5-3.5.3-1.3.5-2.6.5-4m14.3-26.9h13.9c3.8 0 7 .6 9.5 1.7 2.5 1.2 4.5 2.8 6 4.8s2.6 4.2 3.2 6.73c.6 2.5.9 5.1.9 7.8 0 3-.4 5.8-1.2 8.4-.7 2.55-1.9 4.8-3.5 6.7-1.6 1.9-3.6 3.4-6.1 4.45-2.4 1.1-5.4 1.67-8.8 1.67h-13.7v-42.2zm14 40c2 0 4-.3 6-.9 2-.6 3.8-1.7 5.4-3.1 1.7-1.5 3-3.4 4-5.8 1-2.5 1.5-5.5 1.5-9.2 0-2.9-.3-5.3-.8-7.4-.6-2-1.4-3.7-2.3-5.1-.9-1.4-2-2.5-3.2-3.3-1.2-.9-2.4-1.5-3.7-1.9-1.3-.4-2.5-.7-3.8-.9-1.3-.1-2.4-.2-3.5-.2h-11V328h11.4zm25.3-40h2.2v6.1h-2.2V288zm0 11.8h2.2v30.4h-2.2V300zm34.1 0v29c0 1.7-.2 3.3-.6 4.9-.4 1.6-1 3-2 4.2-.9 1.2-2.3 2.2-3.9 2.9-1.7.7-3.8 1-6.4 1-1.6 0-3.1-.2-4.5-.5-1.4-.4-2.6-.9-3.7-1.6-1-.8-1.9-1.7-2.5-2.9-.7-1.2-1-2.7-1.1-4.5h2.2c.1 1.3.4 2.5 1 3.4s1.2 1.7 2.1 2.3c.9.6 1.9 1.1 3 1.3 1.1.3 2.3.4 3.6.4 2.1 0 3.8-.3 5.2-.9 1.4-.7 2.5-1.5 3.3-2.5.9-1 1.4-2.1 1.8-3.4.4-1.3.5-2.6.5-3.9v-6.92h-.1c-1 2.2-2.5 3.9-4.3 5.1-1.8 1.2-4 1.8-6.6 1.8-2.2 0-4.2-.3-5.8-1.1-1.6-.8-3-1.82-4.1-3.2-1-1.34-1.9-2.92-2.4-4.74-.5-1.8-.8-3.8-.8-5.9 0-2 .3-3.9.9-5.7.5-1.8 1.4-3.4 2.5-4.7 1.1-1.35 2.4-2.4 4.1-3.24 1.6-.8 3.5-1.2 5.6-1.2 2.4 0 4.6.6 6.7 1.83 2 1.2 3.5 3 4.3 5.2h.1V300h2.1zm-13.3 1.3c-1.8 0-3.4.4-4.8 1.1-1.4.8-2.5 1.8-3.4 3-.9 1.2-1.5 2.6-2 4.2-.5 1.55-.7 3.1-.7 4.75 0 1.8.2 3.5.7 5.05.5 1.6 1.1 3 2.1 4.2 1 1.2 2.1 2.15 3.5 2.8 1.4.7 3 1.1 4.7 1.1 1.9 0 3.5-.37 4.9-1.1 1.4-.7 2.5-1.6 3.4-2.9.9-1.2 1.6-2.6 2.1-4.1.4-1.55.7-3.2.7-4.9 0-1.7-.2-3.4-.7-4.9-.4-1.6-1.1-3-2-4.2-.9-1.2-2.1-2.2-3.5-2.9-1.4-.7-3-1.05-4.8-1.05m20.1-13.2h2.2v6.1H397v-6.1zm0 11.9h2.2v30.4H397V300zm20.2 1.9h-6.6v21.3c0 1.2.2 2.2.4 2.9.3.7.7 1.3 1.3 1.6.6.3 1.3.6 2.1.6.8.07 1.8.1 2.8.05v1.93c-1.1.02-2.2 0-3.3-.08-1.1-.1-2-.4-2.9-.9-.8-.5-1.5-1.2-1.9-2.2-.5-1-.7-2.4-.6-4.1V302h-5.6v-1.96h5.6v-9.47h2.3v9.45h6.6V302zm24 22.46h-.2c-.4.9-.9 1.8-1.6 2.6-.7.8-1.5 1.5-2.5 2.16-1 .68-2.1 1.17-3.3 1.5-1.2.38-2.5.5-4 .5-3.2 0-5.7-.7-7.5-2.1-1.8-1.4-2.7-3.52-2.7-6.5 0-1.72.4-3.2 1.1-4.3.7-1.1 1.6-2 2.7-2.6 1.1-.7 2.3-1.1 3.6-1.4 1.4-.3 2.6-.5 3.9-.6l3.5-.3c1.6-.1 2.9-.3 3.8-.6 1-.26 1.7-.6 2.1-1.1.5-.44.8-1 .9-1.74.1-.7.2-1.6.2-2.7 0-.8-.1-1.6-.5-2.3-.3-.7-.8-1.3-1.4-1.9-.7-.5-1.6-.93-2.6-1.3-1.1-.3-2.4-.4-3.9-.4-2.8 0-5 .6-6.6 2-1.7 1.3-2.6 3.34-2.8 6.1H421c.1-3.4 1.2-5.9 3.2-7.6s4.8-2.5 8.5-2.5 6.3.7 8 2.1c1.7 1.47 2.5 3.35 2.5 5.68V325c0 .45 0 .9.03 1.3.03.45.1.84.2 1.2.1.35.3.64.6.86.28.2.67.3 1.2.3.4 0 .94 0 1.65-.2v1.9c-.6.2-1.2.3-1.84.3-.9 0-1.63-.1-2.16-.34-.53-.3-.94-.6-1.2-1-.3-.4-.48-.9-.58-1.4-.1-.53-.1-1.1-.1-1.74v-1.6zm0-11.22c-.6.7-1.4 1.2-2.5 1.4s-2.4.4-3.8.6l-3.8.35c-1.1.2-2.2.3-3.3.5-1.1.3-2.1.6-2.9 1.1-.9.5-1.6 1.2-2.2 2.1-.6.9-.8 2.1-.8 3.5 0 2.3.7 3.9 2.1 5 1.4 1.1 3.3 1.7 5.8 1.7 2.6 0 4.6-.4 6.1-1.4 1.5-.9 2.6-2 3.4-3.2.8-1.2 1.3-2.3 1.5-3.5.2-1.1.3-1.8.3-2.2v-5.7zm9.6-24.9h2.2V331h-2.2z" clip-path="url(#b)"/>
  <path fill="#010101" d="M315.03 278.92c-126.02.1-141.2.02-267.2.04l-.13-26.37c6.37-3 15.46-10.6 23.58-16.6 14.5-5.5 18.37-11.4 25.57-15.2 5.4-4.8 11.68-3.8 16.18-8.8 5.42-3.3 9.14-9.2 19.5-12.5 9.75 0 17.6-14.2 25.53-16 8.97-1.1 31.58-9.6 45.94-15.4 16.42-8.6 23.12-7.1 26.9-10.3 7.73 8.5 8.63 2.2 16.45 9.3 4.85.6 6.92 4.9 9.28 4.5l5.22 2.1c5.07-1.9 6 3.3 14.3 3.8 11.2 8 9.8 6 15.2 6.5 7.8 1.3 17.77-3.7 23.3-2" clip-path="url(#b)"/>
  <path fill="#FFF" d="M225.85 177.15c9.84 10.23 37.9 25.4 45.5 37.42-2.8 5.76.62 17.5 1.17 24-14 0-24.3 9-30.53 11.72-.7 6.1-23-73.3-23.7-67.2-3.6-14.9 15.5 19.2 21.5 18.7-4.9-10.5-11.6-13.5-14-24.8m77.2 41.7c4 12.4-18.9-5.7-23.6-7.3 0-2.9-15.9-12.6-15.9-15.5-2.8-2.8-25.4-20.2-28.2-22.9.9-1.9 32.2 20.9 33.1 19.1m-75.3 5.3c4.5 3.2 9 6.5 13.6 9.8 5.8-.1.1-15.9 6-15.9-2.8 2 8.3 12.5 5.6 14.6 4.1 5.4 1.2 41.2 10.9 52.8-9.2-4.1-18.8-37.9-27.8-42.2 0-4.9-2-5.9-6.2-10 0-3.5-2.1-5.7-2.1-9.2m-104.4 41c18.2-13.2 37.2-25.5 49.7-27.7 2.9.7 39.8-10.6 42.7-10.8.9-.1-2.3 4.2-2 5.1 2.1 7 15.1 39.6-3.3 37.8-5.5 1.8-34.6-20.4-44.3-18.6 0 0-44 14.9-43 14.2m226-36.1l.1 17.5c-15.6-11-35.6-24.5-35.6-27.3-2.8-2.8-35.5-22-38.3-24.8 1-1.9 37.1 21.1 38 19.3m-77-1c2.2-3.5 27.5-20.5 27.5-22.3s-39.7 17.5-39.7 17.5-36.5 8.8-39.5 14c-2.7 4.6 20.5-4.8 34.7-3 5.2.6 14.9-2.8 17-6.3" clip-path="url(#b)"/>
  <path d="M356.6 241.6h17.36v17.37H356.6z" clip-path="url(#b)"/>
  <path fill="#FFF" d="M356.6 221.9h17.36v17.35H356.6zm-19.73 0h17.36v17.35h-17.36z" clip-path="url(#b)"/>
  <path d="M336.87 241.6h17.36v17.37h-17.36z" clip-path="url(#b)"/>
  <path fill="#FFF" d="M396.04 241.6h17.36v17.37h-17.36z" clip-path="url(#b)"/>
  <path d="M413.4 221.9v17.35h-17.36V221.9m-2.36 0v17.35h-17.36V221.9m0 19.7h17.36v17.37h-17.36zm-19.72-39.43h17.36v17.36H356.6zm-19.73 0h17.36v17.36h-17.36zm78.9 39.43h17.35v17.37h-17.36zm-98.62-19.7h17.36v17.35h-17.3zm0 19.7h17.36v17.37h-17.3z" clip-path="url(#b)"/>
  <path fill="#FFF" d="M317.15 202.17h17.36v17.36h-17.3z" clip-path="url(#b)"/>
  <path d="M317.15 182.44h17.36v17.36h-17.3zm19.72-.27h17.36v17.36h-17.36z" clip-path="url(#b)"/>
</svg>
